<svg width="139" height="24" viewBox="0 0 139 24" fill="none" xmlns="http://www.w3.org/2000/svg">
<path d="M3.21231 2.75418C2.54551 2.86633 1.9424 3.18036 1.45541 3.66635C1.09579 4.02897 0.942197 4.25327 0.743656 4.72057C0.485177 5.31497 0.500162 4.93366 0.500162 11.7001C0.500162 18.3208 0.49267 18.0591 0.706195 18.6199C0.852292 19.0124 1.07706 19.3638 1.39547 19.6965C1.84874 20.1713 2.33573 20.4554 2.98006 20.6274L3.29098 20.7096L9.26595 20.7246C13.5177 20.7321 15.3496 20.7246 15.6118 20.6947C16.391 20.605 17.0203 20.3096 17.5597 19.775C17.9606 19.3788 18.1966 18.9937 18.3914 18.4143L18.5 18.0965V11.7413V5.386L18.4138 5.09067C18.0992 4.0028 17.2825 3.1841 16.1774 2.83643L15.8403 2.73175L9.62183 2.72801C6.20167 2.72427 3.3172 2.73549 3.21231 2.75418ZM7.20187 9.49449C8.46429 10.7057 9.48697 11.7114 9.48322 11.7263C9.47573 11.7413 8.43807 12.7469 7.17565 13.9619L4.87557 16.1712L4.27994 15.5993C3.95403 15.289 3.68432 15.0123 3.68806 14.9937C3.68806 14.9712 4.44851 14.231 5.37379 13.3488C6.29532 12.4628 7.05203 11.73 7.05577 11.7188C7.05577 11.7039 6.29907 10.9637 5.37005 10.0739C4.44477 9.1842 3.68432 8.44774 3.68432 8.43653C3.68432 8.38793 4.83061 7.27389 4.86807 7.28136C4.8943 7.28884 5.94319 8.28325 7.20187 9.49449ZM15.372 15.4796V16.1712H13.1993H11.0266V15.4796V14.788H13.1993H15.372V15.4796Z" fill="#C92071"/>
<path d="M29.18 19H24.2876V4.56229H29.2787C30.7122 4.56229 31.9435 4.85133 32.9727 5.4294C34.0067 6.00277 34.801 6.82758 35.3555 7.90383C35.9101 8.98008 36.1874 10.2678 36.1874 11.767C36.1874 13.271 35.9078 14.5634 35.3485 15.6444C34.7939 16.7253 33.9926 17.5548 32.9445 18.1329C31.9012 18.711 30.6464 19 29.18 19ZM26.903 16.7371H29.0531C30.0589 16.7371 30.8978 16.5538 31.5699 16.1872C32.2419 15.8159 32.7472 15.2637 33.0855 14.5305C33.4239 13.7926 33.5931 12.8715 33.5931 11.767C33.5931 10.6626 33.4239 9.74614 33.0855 9.01768C32.7472 8.28451 32.2466 7.73699 31.584 7.37511C30.926 7.00852 30.1082 6.82523 29.1307 6.82523H26.903V16.7371ZM38.3611 19V8.17172H40.9131V19H38.3611ZM39.6441 6.63489C39.2399 6.63489 38.8922 6.50095 38.6008 6.23306C38.3094 5.96047 38.1637 5.63384 38.1637 5.25316C38.1637 4.86777 38.3094 4.54114 38.6008 4.27325C38.8922 4.00067 39.2399 3.86437 39.6441 3.86437C40.053 3.86437 40.4008 4.00067 40.6875 4.27325C40.9789 4.54114 41.1246 4.86777 41.1246 5.25316C41.1246 5.63384 40.9789 5.96047 40.6875 6.23306C40.4008 6.50095 40.053 6.63489 39.6441 6.63489ZM48.048 23.2862C47.1315 23.2862 46.3443 23.1617 45.6863 22.9126C45.0283 22.6682 44.4996 22.3392 44.1001 21.9256C43.7007 21.512 43.4234 21.0538 43.2683 20.5509L45.5665 19.994C45.6699 20.2055 45.8203 20.4146 46.0177 20.6214C46.215 20.8329 46.4806 21.0068 46.8143 21.1431C47.1526 21.2841 47.578 21.3546 48.0903 21.3546C48.814 21.3546 49.4132 21.1783 49.8879 20.8259C50.3626 20.4781 50.5999 19.9047 50.5999 19.1057V17.0543H50.473C50.3414 17.3175 50.1488 17.5877 49.895 17.865C49.6459 18.1423 49.3145 18.3749 48.901 18.5629C48.4921 18.7509 47.9775 18.8449 47.3571 18.8449C46.5252 18.8449 45.7709 18.6499 45.0941 18.2598C44.4221 17.865 43.8863 17.2775 43.4868 16.4974C43.092 15.7125 42.8947 14.7303 42.8947 13.5506C42.8947 12.3616 43.092 11.3582 43.4868 10.5404C43.8863 9.71794 44.4244 9.09522 45.1012 8.67224C45.778 8.24456 46.5323 8.03072 47.3641 8.03072C47.9986 8.03072 48.5203 8.13882 48.9292 8.35501C49.3427 8.5665 49.6717 8.82264 49.9161 9.12342C50.1605 9.41951 50.3461 9.69914 50.473 9.96233H50.614V8.17172H53.1308V19.1762C53.1308 20.1021 52.9099 20.8682 52.4681 21.4744C52.0263 22.0807 51.4224 22.5342 50.6563 22.835C49.8903 23.1358 49.0208 23.2862 48.048 23.2862ZM48.0691 16.8428C48.6096 16.8428 49.0702 16.7112 49.4508 16.448C49.8315 16.1848 50.1206 15.8065 50.3179 15.313C50.5153 14.8195 50.614 14.2274 50.614 13.5365C50.614 12.855 50.5153 12.2582 50.3179 11.7459C50.1253 11.2336 49.8386 10.8365 49.4579 10.5545C49.0819 10.2678 48.619 10.1245 48.0691 10.1245C47.5004 10.1245 47.0258 10.2725 46.6451 10.5686C46.2644 10.8647 45.9777 11.2712 45.785 11.7882C45.5923 12.3005 45.496 12.8832 45.496 13.5365C45.496 14.1992 45.5923 14.7796 45.785 15.2778C45.9824 15.7713 46.2714 16.1566 46.6521 16.4339C47.0375 16.7065 47.5098 16.8428 48.0691 16.8428ZM55.5477 19V8.17172H58.0996V19H55.5477ZM56.8307 6.63489C56.4265 6.63489 56.0787 6.50095 55.7874 6.23306C55.496 5.96047 55.3503 5.63384 55.3503 5.25316C55.3503 4.86777 55.496 4.54114 55.7874 4.27325C56.0787 4.00067 56.4265 3.86437 56.8307 3.86437C57.2396 3.86437 57.5874 4.00067 57.8741 4.27325C58.1654 4.54114 58.3111 4.86777 58.3111 5.25316C58.3111 5.63384 58.1654 5.96047 57.8741 6.23306C57.5874 6.50095 57.2396 6.63489 56.8307 6.63489ZM65.9325 8.17172V10.1456H59.7076V8.17172H65.9325ZM61.2444 5.57744H63.7964V15.7431C63.7964 16.0861 63.8481 16.3493 63.9515 16.5326C64.0596 16.7112 64.2006 16.8334 64.3745 16.8992C64.5484 16.965 64.7411 16.9979 64.9526 16.9979C65.1123 16.9979 65.258 16.9861 65.3896 16.9626C65.5259 16.9391 65.6293 16.918 65.6998 16.8992L66.1298 18.8943C65.9936 18.9413 65.7985 18.993 65.5447 19.0493C65.2956 19.1057 64.9902 19.1386 64.6283 19.148C63.9891 19.1668 63.4134 19.0705 62.9011 18.859C62.3888 18.6428 61.9823 18.3091 61.6815 17.858C61.3854 17.4068 61.2397 16.8428 61.2444 16.166V5.57744ZM70.9842 19.2185C70.298 19.2185 69.68 19.0963 69.1301 18.852C68.5849 18.6029 68.1526 18.2363 67.833 17.7522C67.5181 17.2681 67.3606 16.6713 67.3606 15.9616C67.3606 15.3506 67.4734 14.8454 67.699 14.4459C67.9246 14.0464 68.2325 13.7269 68.6225 13.4872C69.0126 13.2475 69.452 13.0665 69.9408 12.9443C70.4343 12.8174 70.9442 12.7258 71.4706 12.6694C72.1051 12.6036 72.6197 12.5449 73.0145 12.4932C73.4093 12.4368 73.6959 12.3522 73.8745 12.2394C74.0578 12.1219 74.1495 11.9409 74.1495 11.6965V11.6543C74.1495 11.1232 73.992 10.7119 73.6771 10.4206C73.3623 10.1292 72.9087 9.98348 72.3166 9.98348C71.6915 9.98348 71.1957 10.1198 70.8291 10.3924C70.4672 10.6649 70.2228 10.9869 70.0959 11.3582L67.7131 11.0198C67.9011 10.3618 68.2113 9.81194 68.6437 9.37016C69.0761 8.92368 69.6048 8.59 70.2299 8.36911C70.8549 8.14352 71.5458 8.03072 72.3025 8.03072C72.8241 8.03072 73.3435 8.09182 73.8604 8.21401C74.3774 8.33621 74.8497 8.5383 75.2774 8.82029C75.7051 9.09757 76.0482 9.4759 76.3067 9.95528C76.5699 10.4347 76.7015 11.0339 76.7015 11.7529V19H74.2482V17.5125H74.1636C74.0085 17.8133 73.7899 18.0953 73.508 18.3585C73.2307 18.617 72.8805 18.8261 72.4576 18.9859C72.0393 19.141 71.5481 19.2185 70.9842 19.2185ZM71.6468 17.3433C72.1591 17.3433 72.6032 17.2423 72.9792 17.0402C73.3552 16.8334 73.6442 16.5608 73.8463 16.2224C74.0531 15.884 74.1565 15.5151 74.1565 15.1156V13.8396C74.0766 13.9054 73.9403 13.9665 73.7476 14.0229C73.5597 14.0793 73.3482 14.1287 73.1132 14.171C72.8782 14.2133 72.6455 14.2509 72.4153 14.2838C72.185 14.3167 71.9852 14.3449 71.816 14.3684C71.4354 14.4201 71.0946 14.5047 70.7938 14.6222C70.4931 14.7397 70.2557 14.9041 70.0818 15.1156C69.9079 15.3224 69.821 15.5903 69.821 15.9193C69.821 16.3893 69.9925 16.7441 70.3356 16.9838C70.6787 17.2235 71.1158 17.3433 71.6468 17.3433ZM81.621 4.56229V19H79.069V4.56229H81.621ZM96.7315 8.53125C96.6657 7.91558 96.3884 7.4362 95.8996 7.09312C95.4155 6.75003 94.7857 6.57849 94.0103 6.57849C93.4651 6.57849 92.9975 6.66074 92.6074 6.82523C92.2173 6.98972 91.9189 7.21296 91.7121 7.49495C91.5053 7.77694 91.3996 8.09887 91.3949 8.46075C91.3949 8.76154 91.463 9.02238 91.5993 9.24327C91.7403 9.46416 91.9306 9.65215 92.1703 9.80724C92.41 9.95763 92.6755 10.0845 92.9669 10.1879C93.2583 10.2913 93.5521 10.3783 93.8481 10.4488L95.2017 10.7871C95.7468 10.914 96.2709 11.0856 96.7737 11.3018C97.2813 11.518 97.7349 11.7905 98.1343 12.1195C98.5385 12.4485 98.8581 12.8456 99.0931 13.3109C99.3281 13.7762 99.4456 14.3214 99.4456 14.9464C99.4456 15.7924 99.2294 16.5373 98.797 17.1812C98.3646 17.8204 97.7396 18.3209 96.9218 18.6828C96.1087 19.0399 95.1241 19.2185 93.968 19.2185C92.8447 19.2185 91.8695 19.0446 91.0424 18.6969C90.2199 18.3491 89.576 17.8415 89.1108 17.1741C88.6502 16.5068 88.4011 15.6937 88.3635 14.735H90.9366C90.9742 15.2378 91.1293 15.6561 91.4019 15.9898C91.6745 16.3235 92.0293 16.5726 92.4664 16.7371C92.9082 16.9016 93.4017 16.9838 93.9468 16.9838C94.5155 16.9838 95.0137 16.8992 95.4414 16.73C95.8737 16.5561 96.2121 16.3164 96.4565 16.0109C96.7009 15.7008 96.8254 15.3389 96.8301 14.9253C96.8254 14.5493 96.715 14.2391 96.4988 13.9947C96.2826 13.7457 95.9795 13.5389 95.5894 13.3744C95.204 13.2052 94.7528 13.0548 94.2359 12.9232L92.5933 12.5002C91.4043 12.1947 90.4643 11.7318 89.7734 11.1114C89.0873 10.4864 88.7442 9.65685 88.7442 8.62289C88.7442 7.77224 88.9745 7.02732 89.435 6.38815C89.9003 5.74898 90.5324 5.25316 91.3314 4.90067C92.1304 4.54349 93.0351 4.3649 94.0455 4.3649C95.0701 4.3649 95.9677 4.54349 96.7385 4.90067C97.514 5.25316 98.1226 5.74428 98.5644 6.37405C99.0061 6.99912 99.2341 7.71819 99.2482 8.53125H96.7315ZM106.873 8.17172V10.1456H100.648V8.17172H106.873ZM102.185 5.57744H104.737V15.7431C104.737 16.0861 104.789 16.3493 104.892 16.5326C105 16.7112 105.141 16.8334 105.315 16.8992C105.489 16.965 105.682 16.9979 105.893 16.9979C106.053 16.9979 106.199 16.9861 106.33 16.9626C106.466 16.9391 106.57 16.918 106.64 16.8992L107.07 18.8943C106.934 18.9413 106.739 18.993 106.485 19.0493C106.236 19.1057 105.931 19.1386 105.569 19.148C104.93 19.1668 104.354 19.0705 103.842 18.859C103.329 18.6428 102.923 18.3091 102.622 17.858C102.326 17.4068 102.18 16.8428 102.185 16.166V5.57744ZM113.416 19.2115C112.358 19.2115 111.442 18.9789 110.666 18.5136C109.891 18.0483 109.289 17.3974 108.862 16.5608C108.439 15.7243 108.227 14.7467 108.227 13.6282C108.227 12.5096 108.439 11.5297 108.862 10.6884C109.289 9.84719 109.891 9.19392 110.666 8.72864C111.442 8.26336 112.358 8.03072 113.416 8.03072C114.473 8.03072 115.39 8.26336 116.165 8.72864C116.941 9.19392 117.54 9.84719 117.963 10.6884C118.39 11.5297 118.604 12.5096 118.604 13.6282C118.604 14.7467 118.39 15.7243 117.963 16.5608C117.54 17.3974 116.941 18.0483 116.165 18.5136C115.39 18.9789 114.473 19.2115 113.416 19.2115ZM113.43 17.1671C114.003 17.1671 114.483 17.0096 114.868 16.6948C115.253 16.3752 115.54 15.9475 115.728 15.4117C115.921 14.8759 116.017 14.2791 116.017 13.6211C116.017 12.9584 115.921 12.3592 115.728 11.8234C115.54 11.283 115.253 10.8529 114.868 10.5334C114.483 10.2138 114.003 10.054 113.43 10.054C112.842 10.054 112.354 10.2138 111.964 10.5334C111.578 10.8529 111.289 11.283 111.096 11.8234C110.908 12.3592 110.814 12.9584 110.814 13.6211C110.814 14.2791 110.908 14.8759 111.096 15.4117C111.289 15.9475 111.578 16.3752 111.964 16.6948C112.354 17.0096 112.842 17.1671 113.43 17.1671ZM120.572 19V8.17172H123.046V9.97643H123.159C123.356 9.35136 123.695 8.86963 124.174 8.53125C124.658 8.18817 125.21 8.01662 125.831 8.01662C125.972 8.01662 126.129 8.02367 126.303 8.03777C126.482 8.04717 126.63 8.06362 126.747 8.08712V10.4347C126.639 10.3971 126.468 10.3642 126.233 10.336C126.002 10.3031 125.779 10.2866 125.563 10.2866C125.098 10.2866 124.679 10.3877 124.308 10.5898C123.942 10.7871 123.652 11.0621 123.441 11.4146C123.23 11.767 123.124 12.1736 123.124 12.6342V19H120.572ZM132.592 19.2115C131.506 19.2115 130.569 18.9859 129.779 18.5347C128.994 18.0788 128.391 17.435 127.968 16.6031C127.545 15.7666 127.333 14.782 127.333 13.6493C127.333 12.5355 127.545 11.5579 127.968 10.7166C128.395 9.87069 128.992 9.21272 129.758 8.74274C130.524 8.26806 131.424 8.03072 132.458 8.03072C133.126 8.03072 133.755 8.13882 134.347 8.35501C134.944 8.5665 135.471 8.89548 135.927 9.34196C136.387 9.78844 136.749 10.3571 137.012 11.048C137.275 11.7341 137.407 12.5519 137.407 13.5013V14.2838H128.531V12.5637H134.961C134.956 12.0749 134.85 11.6402 134.644 11.2595C134.437 10.8741 134.148 10.571 133.776 10.3501C133.41 10.1292 132.982 10.0187 132.493 10.0187C131.972 10.0187 131.514 10.1456 131.119 10.3994C130.724 10.6485 130.416 10.9775 130.195 11.3864C129.979 11.7905 129.869 12.2347 129.864 12.7187V14.2203C129.864 14.8501 129.979 15.3906 130.209 15.8418C130.44 16.2882 130.762 16.6313 131.175 16.871C131.589 17.106 132.073 17.2235 132.627 17.2235C132.999 17.2235 133.335 17.1718 133.635 17.0684C133.936 16.9603 134.197 16.8029 134.418 16.5961C134.639 16.3893 134.806 16.1331 134.918 15.8277L137.301 16.0955C137.151 16.7253 136.864 17.2752 136.441 17.7452C136.023 18.2104 135.487 18.5723 134.834 18.8308C134.181 19.0846 133.433 19.2115 132.592 19.2115Z" fill="#C92071"/>
</svg>
